<mxfile host="app.diagrams.net" modified="2023-10-05T14:39:41.482Z" agent="Mozilla/5.0 (Windows NT 10.0; Win64; x64) AppleWebKit/537.36 (KHTML, like Gecko) Chrome/116.0.5845.2272 YaBrowser/23.9.0.2272 Yowser/2.5 Safari/537.36" etag="lH7gtKvb-FIrBU1Vhid7" version="22.0.2" type="device">
  <diagram id="C5RBs43oDa-KdzZeNtuy" name="Page-1">
    <mxGraphModel dx="835" dy="1622" grid="1" gridSize="10" guides="1" tooltips="1" connect="1" arrows="1" fold="1" page="1" pageScale="1" pageWidth="827" pageHeight="1169" math="0" shadow="0">
      <root>
        <mxCell id="WIyWlLk6GJQsqaUBKTNV-0" />
        <mxCell id="WIyWlLk6GJQsqaUBKTNV-1" parent="WIyWlLk6GJQsqaUBKTNV-0" />
        <mxCell id="zkfFHV4jXpPFQw0GAbJ--0" value="Dessert" style="swimlane;fontStyle=2;align=center;verticalAlign=top;childLayout=stackLayout;horizontal=1;startSize=26;horizontalStack=0;resizeParent=1;resizeLast=0;collapsible=1;marginBottom=0;rounded=0;shadow=0;strokeWidth=1;fillColor=#dae8fc;strokeColor=#6c8ebf;" parent="WIyWlLk6GJQsqaUBKTNV-1" vertex="1">
          <mxGeometry x="790" y="-342" width="160" height="130" as="geometry">
            <mxRectangle x="230" y="140" width="160" height="26" as="alternateBounds" />
          </mxGeometry>
        </mxCell>
        <mxCell id="310pnRa5Z1byuFcqEeXe-136" value="Id: int" style="text;align=left;verticalAlign=top;spacingLeft=4;spacingRight=4;overflow=hidden;rotatable=0;points=[[0,0.5],[1,0.5]];portConstraint=eastwest;rounded=0;shadow=0;html=0;" parent="zkfFHV4jXpPFQw0GAbJ--0" vertex="1">
          <mxGeometry y="26" width="160" height="26" as="geometry" />
        </mxCell>
        <mxCell id="310pnRa5Z1byuFcqEeXe-138" value="Name: varchar(64)" style="text;align=left;verticalAlign=top;spacingLeft=4;spacingRight=4;overflow=hidden;rotatable=0;points=[[0,0.5],[1,0.5]];portConstraint=eastwest;" parent="zkfFHV4jXpPFQw0GAbJ--0" vertex="1">
          <mxGeometry y="52" width="160" height="26" as="geometry" />
        </mxCell>
        <mxCell id="zkfFHV4jXpPFQw0GAbJ--3" value="Calories: int" style="text;align=left;verticalAlign=top;spacingLeft=4;spacingRight=4;overflow=hidden;rotatable=0;points=[[0,0.5],[1,0.5]];portConstraint=eastwest;rounded=0;shadow=0;html=0;" parent="zkfFHV4jXpPFQw0GAbJ--0" vertex="1">
          <mxGeometry y="78" width="160" height="26" as="geometry" />
        </mxCell>
        <mxCell id="xgKtOcf8zNCmexhq9f7v-1" value="Ingredient" style="swimlane;fontStyle=2;align=center;verticalAlign=top;childLayout=stackLayout;horizontal=1;startSize=26;horizontalStack=0;resizeParent=1;resizeLast=0;collapsible=1;marginBottom=0;rounded=0;shadow=0;strokeWidth=1;fillColor=#d5e8d4;strokeColor=#82b366;" parent="WIyWlLk6GJQsqaUBKTNV-1" vertex="1">
          <mxGeometry x="220" y="-299" width="160" height="100" as="geometry">
            <mxRectangle x="230" y="140" width="160" height="26" as="alternateBounds" />
          </mxGeometry>
        </mxCell>
        <mxCell id="xgKtOcf8zNCmexhq9f7v-3" value="Id: int" style="text;align=left;verticalAlign=top;spacingLeft=4;spacingRight=4;overflow=hidden;rotatable=0;points=[[0,0.5],[1,0.5]];portConstraint=eastwest;rounded=0;shadow=0;html=0;" parent="xgKtOcf8zNCmexhq9f7v-1" vertex="1">
          <mxGeometry y="26" width="160" height="26" as="geometry" />
        </mxCell>
        <mxCell id="xgKtOcf8zNCmexhq9f7v-2" value="Name: varchar(64)" style="text;align=left;verticalAlign=top;spacingLeft=4;spacingRight=4;overflow=hidden;rotatable=0;points=[[0,0.5],[1,0.5]];portConstraint=eastwest;" parent="xgKtOcf8zNCmexhq9f7v-1" vertex="1">
          <mxGeometry y="52" width="160" height="26" as="geometry" />
        </mxCell>
        <mxCell id="xgKtOcf8zNCmexhq9f7v-8" value="Order" style="swimlane;fontStyle=2;align=center;verticalAlign=top;childLayout=stackLayout;horizontal=1;startSize=26;horizontalStack=0;resizeParent=1;resizeLast=0;collapsible=1;marginBottom=0;rounded=0;shadow=0;strokeWidth=1;fillColor=#ffe6cc;strokeColor=#d79b00;" parent="WIyWlLk6GJQsqaUBKTNV-1" vertex="1">
          <mxGeometry x="600" y="-719" width="160" height="182" as="geometry">
            <mxRectangle x="230" y="140" width="160" height="26" as="alternateBounds" />
          </mxGeometry>
        </mxCell>
        <mxCell id="xgKtOcf8zNCmexhq9f7v-10" value="Id: int" style="text;align=left;verticalAlign=top;spacingLeft=4;spacingRight=4;overflow=hidden;rotatable=0;points=[[0,0.5],[1,0.5]];portConstraint=eastwest;rounded=0;shadow=0;html=0;" parent="xgKtOcf8zNCmexhq9f7v-8" vertex="1">
          <mxGeometry y="26" width="160" height="26" as="geometry" />
        </mxCell>
        <mxCell id="xgKtOcf8zNCmexhq9f7v-9" value="UserId: int" style="text;align=left;verticalAlign=top;spacingLeft=4;spacingRight=4;overflow=hidden;rotatable=0;points=[[0,0.5],[1,0.5]];portConstraint=eastwest;" parent="xgKtOcf8zNCmexhq9f7v-8" vertex="1">
          <mxGeometry y="52" width="160" height="26" as="geometry" />
        </mxCell>
        <mxCell id="xgKtOcf8zNCmexhq9f7v-11" value="Date: date" style="text;align=left;verticalAlign=top;spacingLeft=4;spacingRight=4;overflow=hidden;rotatable=0;points=[[0,0.5],[1,0.5]];portConstraint=eastwest;rounded=0;shadow=0;html=0;" parent="xgKtOcf8zNCmexhq9f7v-8" vertex="1">
          <mxGeometry y="78" width="160" height="26" as="geometry" />
        </mxCell>
        <mxCell id="dkHUZiq-XQNoRCW6jYtN-8" value="DrinkId: int" style="text;align=left;verticalAlign=top;spacingLeft=4;spacingRight=4;overflow=hidden;rotatable=0;points=[[0,0.5],[1,0.5]];portConstraint=eastwest;rounded=0;shadow=0;html=0;" parent="xgKtOcf8zNCmexhq9f7v-8" vertex="1">
          <mxGeometry y="104" width="160" height="26" as="geometry" />
        </mxCell>
        <mxCell id="310pnRa5Z1byuFcqEeXe-116" value="DessertId: int" style="text;align=left;verticalAlign=top;spacingLeft=4;spacingRight=4;overflow=hidden;rotatable=0;points=[[0,0.5],[1,0.5]];portConstraint=eastwest;rounded=0;shadow=0;html=0;" parent="xgKtOcf8zNCmexhq9f7v-8" vertex="1">
          <mxGeometry y="130" width="160" height="26" as="geometry" />
        </mxCell>
        <mxCell id="xgKtOcf8zNCmexhq9f7v-12" value="Count: int" style="text;align=left;verticalAlign=top;spacingLeft=4;spacingRight=4;overflow=hidden;rotatable=0;points=[[0,0.5],[1,0.5]];portConstraint=eastwest;rounded=0;shadow=0;html=0;" parent="xgKtOcf8zNCmexhq9f7v-8" vertex="1">
          <mxGeometry y="156" width="160" height="26" as="geometry" />
        </mxCell>
        <mxCell id="xgKtOcf8zNCmexhq9f7v-15" value="User" style="swimlane;fontStyle=2;align=center;verticalAlign=top;childLayout=stackLayout;horizontal=1;startSize=26;horizontalStack=0;resizeParent=1;resizeLast=0;collapsible=1;marginBottom=0;rounded=0;shadow=0;strokeWidth=1;fillColor=#fff2cc;strokeColor=#d6b656;" parent="WIyWlLk6GJQsqaUBKTNV-1" vertex="1">
          <mxGeometry x="480" y="-919" width="160" height="160" as="geometry">
            <mxRectangle x="230" y="140" width="160" height="26" as="alternateBounds" />
          </mxGeometry>
        </mxCell>
        <mxCell id="xgKtOcf8zNCmexhq9f7v-16" value="Id: int" style="text;align=left;verticalAlign=top;spacingLeft=4;spacingRight=4;overflow=hidden;rotatable=0;points=[[0,0.5],[1,0.5]];portConstraint=eastwest;rounded=0;shadow=0;html=0;" parent="xgKtOcf8zNCmexhq9f7v-15" vertex="1">
          <mxGeometry y="26" width="160" height="26" as="geometry" />
        </mxCell>
        <mxCell id="xgKtOcf8zNCmexhq9f7v-17" value="Login: varchar(64)" style="text;align=left;verticalAlign=top;spacingLeft=4;spacingRight=4;overflow=hidden;rotatable=0;points=[[0,0.5],[1,0.5]];portConstraint=eastwest;" parent="xgKtOcf8zNCmexhq9f7v-15" vertex="1">
          <mxGeometry y="52" width="160" height="26" as="geometry" />
        </mxCell>
        <mxCell id="xgKtOcf8zNCmexhq9f7v-24" value="Password: varchar(64)" style="text;align=left;verticalAlign=top;spacingLeft=4;spacingRight=4;overflow=hidden;rotatable=0;points=[[0,0.5],[1,0.5]];portConstraint=eastwest;rounded=0;shadow=0;html=0;" parent="xgKtOcf8zNCmexhq9f7v-15" vertex="1">
          <mxGeometry y="78" width="160" height="26" as="geometry" />
        </mxCell>
        <mxCell id="310pnRa5Z1byuFcqEeXe-80" value="Date of birth: date" style="text;align=left;verticalAlign=top;spacingLeft=4;spacingRight=4;overflow=hidden;rotatable=0;points=[[0,0.5],[1,0.5]];portConstraint=eastwest;rounded=0;shadow=0;html=0;" parent="xgKtOcf8zNCmexhq9f7v-15" vertex="1">
          <mxGeometry y="104" width="160" height="26" as="geometry" />
        </mxCell>
        <mxCell id="xgKtOcf8zNCmexhq9f7v-19" value="CouponId : int&#xa;" style="text;align=left;verticalAlign=top;spacingLeft=4;spacingRight=4;overflow=hidden;rotatable=0;points=[[0,0.5],[1,0.5]];portConstraint=eastwest;rounded=0;shadow=0;html=0;" parent="xgKtOcf8zNCmexhq9f7v-15" vertex="1">
          <mxGeometry y="130" width="160" height="26" as="geometry" />
        </mxCell>
        <mxCell id="310pnRa5Z1byuFcqEeXe-0" value="Recipe" style="swimlane;fontStyle=2;align=center;verticalAlign=top;childLayout=stackLayout;horizontal=1;startSize=26;horizontalStack=0;resizeParent=1;resizeLast=0;collapsible=1;marginBottom=0;rounded=0;shadow=0;strokeWidth=1;fillColor=#d5e8d4;strokeColor=#82b366;" parent="WIyWlLk6GJQsqaUBKTNV-1" vertex="1">
          <mxGeometry x="280" y="-649" width="160" height="110" as="geometry">
            <mxRectangle x="230" y="140" width="160" height="26" as="alternateBounds" />
          </mxGeometry>
        </mxCell>
        <mxCell id="310pnRa5Z1byuFcqEeXe-1" value="Id: int" style="text;align=left;verticalAlign=top;spacingLeft=4;spacingRight=4;overflow=hidden;rotatable=0;points=[[0,0.5],[1,0.5]];portConstraint=eastwest;rounded=0;shadow=0;html=0;" parent="310pnRa5Z1byuFcqEeXe-0" vertex="1">
          <mxGeometry y="26" width="160" height="26" as="geometry" />
        </mxCell>
        <mxCell id="310pnRa5Z1byuFcqEeXe-3" value="IngredientId: int" style="text;align=left;verticalAlign=top;spacingLeft=4;spacingRight=4;overflow=hidden;rotatable=0;points=[[0,0.5],[1,0.5]];portConstraint=eastwest;rounded=0;shadow=0;html=0;" parent="310pnRa5Z1byuFcqEeXe-0" vertex="1">
          <mxGeometry y="52" width="160" height="26" as="geometry" />
        </mxCell>
        <mxCell id="310pnRa5Z1byuFcqEeXe-7" value="Description: varchar(255)" style="text;align=left;verticalAlign=top;spacingLeft=4;spacingRight=4;overflow=hidden;rotatable=0;points=[[0,0.5],[1,0.5]];portConstraint=eastwest;rounded=0;shadow=0;html=0;" parent="310pnRa5Z1byuFcqEeXe-0" vertex="1">
          <mxGeometry y="78" width="160" height="26" as="geometry" />
        </mxCell>
        <mxCell id="310pnRa5Z1byuFcqEeXe-32" value="Drink" style="swimlane;fontStyle=2;align=center;verticalAlign=top;childLayout=stackLayout;horizontal=1;startSize=26;horizontalStack=0;resizeParent=1;resizeLast=0;collapsible=1;marginBottom=0;rounded=0;shadow=0;strokeWidth=1;fillColor=#dae8fc;strokeColor=#6c8ebf;" parent="WIyWlLk6GJQsqaUBKTNV-1" vertex="1">
          <mxGeometry x="420" y="-320.14" width="160" height="182" as="geometry">
            <mxRectangle x="230" y="140" width="160" height="26" as="alternateBounds" />
          </mxGeometry>
        </mxCell>
        <mxCell id="310pnRa5Z1byuFcqEeXe-135" value="Id: int" style="text;align=left;verticalAlign=top;spacingLeft=4;spacingRight=4;overflow=hidden;rotatable=0;points=[[0,0.5],[1,0.5]];portConstraint=eastwest;rounded=0;shadow=0;html=0;" parent="310pnRa5Z1byuFcqEeXe-32" vertex="1">
          <mxGeometry y="26" width="160" height="26" as="geometry" />
        </mxCell>
        <mxCell id="310pnRa5Z1byuFcqEeXe-137" value="Name: varchar(64)" style="text;align=left;verticalAlign=top;spacingLeft=4;spacingRight=4;overflow=hidden;rotatable=0;points=[[0,0.5],[1,0.5]];portConstraint=eastwest;" parent="310pnRa5Z1byuFcqEeXe-32" vertex="1">
          <mxGeometry y="52" width="160" height="26" as="geometry" />
        </mxCell>
        <mxCell id="310pnRa5Z1byuFcqEeXe-35" value="Size: char" style="text;align=left;verticalAlign=top;spacingLeft=4;spacingRight=4;overflow=hidden;rotatable=0;points=[[0,0.5],[1,0.5]];portConstraint=eastwest;rounded=0;shadow=0;html=0;" parent="310pnRa5Z1byuFcqEeXe-32" vertex="1">
          <mxGeometry y="78" width="160" height="26" as="geometry" />
        </mxCell>
        <mxCell id="310pnRa5Z1byuFcqEeXe-74" value="Recipe: int" style="text;align=left;verticalAlign=top;spacingLeft=4;spacingRight=4;overflow=hidden;rotatable=0;points=[[0,0.5],[1,0.5]];portConstraint=eastwest;rounded=0;shadow=0;html=0;" parent="310pnRa5Z1byuFcqEeXe-32" vertex="1">
          <mxGeometry y="104" width="160" height="26" as="geometry" />
        </mxCell>
        <mxCell id="310pnRa5Z1byuFcqEeXe-45" value="CategoryId: int" style="text;align=left;verticalAlign=top;spacingLeft=4;spacingRight=4;overflow=hidden;rotatable=0;points=[[0,0.5],[1,0.5]];portConstraint=eastwest;rounded=0;shadow=0;html=0;" parent="310pnRa5Z1byuFcqEeXe-32" vertex="1">
          <mxGeometry y="130" width="160" height="26" as="geometry" />
        </mxCell>
        <mxCell id="310pnRa5Z1byuFcqEeXe-76" style="edgeStyle=orthogonalEdgeStyle;rounded=0;orthogonalLoop=1;jettySize=auto;html=1;entryX=0.5;entryY=0;entryDx=0;entryDy=0;startArrow=ERmandOne;startFill=0;endArrow=ERmandOne;endFill=0;" parent="WIyWlLk6GJQsqaUBKTNV-1" source="310pnRa5Z1byuFcqEeXe-74" target="310pnRa5Z1byuFcqEeXe-0" edge="1">
          <mxGeometry relative="1" as="geometry" />
        </mxCell>
        <mxCell id="310pnRa5Z1byuFcqEeXe-82" value="Feedback" style="swimlane;fontStyle=2;align=center;verticalAlign=top;childLayout=stackLayout;horizontal=1;startSize=26;horizontalStack=0;resizeParent=1;resizeLast=0;collapsible=1;marginBottom=0;rounded=0;shadow=0;strokeWidth=1;fillColor=#f8cecc;strokeColor=#b85450;" parent="WIyWlLk6GJQsqaUBKTNV-1" vertex="1">
          <mxGeometry x="240" y="-889" width="160" height="156" as="geometry">
            <mxRectangle x="230" y="140" width="160" height="26" as="alternateBounds" />
          </mxGeometry>
        </mxCell>
        <mxCell id="310pnRa5Z1byuFcqEeXe-115" value="Id: int" style="text;align=left;verticalAlign=top;spacingLeft=4;spacingRight=4;overflow=hidden;rotatable=0;points=[[0,0.5],[1,0.5]];portConstraint=eastwest;" parent="310pnRa5Z1byuFcqEeXe-82" vertex="1">
          <mxGeometry y="26" width="160" height="26" as="geometry" />
        </mxCell>
        <mxCell id="310pnRa5Z1byuFcqEeXe-84" value="UserId: int" style="text;align=left;verticalAlign=top;spacingLeft=4;spacingRight=4;overflow=hidden;rotatable=0;points=[[0,0.5],[1,0.5]];portConstraint=eastwest;" parent="310pnRa5Z1byuFcqEeXe-82" vertex="1">
          <mxGeometry y="52" width="160" height="26" as="geometry" />
        </mxCell>
        <mxCell id="310pnRa5Z1byuFcqEeXe-85" value="Date: date" style="text;align=left;verticalAlign=top;spacingLeft=4;spacingRight=4;overflow=hidden;rotatable=0;points=[[0,0.5],[1,0.5]];portConstraint=eastwest;rounded=0;shadow=0;html=0;" parent="310pnRa5Z1byuFcqEeXe-82" vertex="1">
          <mxGeometry y="78" width="160" height="26" as="geometry" />
        </mxCell>
        <mxCell id="310pnRa5Z1byuFcqEeXe-89" value="Rating: int" style="text;align=left;verticalAlign=top;spacingLeft=4;spacingRight=4;overflow=hidden;rotatable=0;points=[[0,0.5],[1,0.5]];portConstraint=eastwest;rounded=0;shadow=0;html=0;" parent="310pnRa5Z1byuFcqEeXe-82" vertex="1">
          <mxGeometry y="104" width="160" height="26" as="geometry" />
        </mxCell>
        <mxCell id="310pnRa5Z1byuFcqEeXe-86" value="Discription: varchar(255)" style="text;align=left;verticalAlign=top;spacingLeft=4;spacingRight=4;overflow=hidden;rotatable=0;points=[[0,0.5],[1,0.5]];portConstraint=eastwest;rounded=0;shadow=0;html=0;" parent="310pnRa5Z1byuFcqEeXe-82" vertex="1">
          <mxGeometry y="130" width="160" height="26" as="geometry" />
        </mxCell>
        <mxCell id="310pnRa5Z1byuFcqEeXe-90" value="Category" style="swimlane;fontStyle=2;align=center;verticalAlign=top;childLayout=stackLayout;horizontal=1;startSize=26;horizontalStack=0;resizeParent=1;resizeLast=0;collapsible=1;marginBottom=0;rounded=0;shadow=0;strokeWidth=1;fillColor=#e1d5e7;strokeColor=#9673a6;" parent="WIyWlLk6GJQsqaUBKTNV-1" vertex="1">
          <mxGeometry x="420" y="-86" width="160" height="86" as="geometry">
            <mxRectangle x="230" y="140" width="160" height="26" as="alternateBounds" />
          </mxGeometry>
        </mxCell>
        <mxCell id="310pnRa5Z1byuFcqEeXe-95" value="Id: int" style="text;align=left;verticalAlign=top;spacingLeft=4;spacingRight=4;overflow=hidden;rotatable=0;points=[[0,0.5],[1,0.5]];portConstraint=eastwest;rounded=0;shadow=0;html=0;" parent="310pnRa5Z1byuFcqEeXe-90" vertex="1">
          <mxGeometry y="26" width="160" height="26" as="geometry" />
        </mxCell>
        <mxCell id="310pnRa5Z1byuFcqEeXe-91" value="Name: varchar(255)" style="text;align=left;verticalAlign=top;spacingLeft=4;spacingRight=4;overflow=hidden;rotatable=0;points=[[0,0.5],[1,0.5]];portConstraint=eastwest;rounded=0;shadow=0;html=0;" parent="310pnRa5Z1byuFcqEeXe-90" vertex="1">
          <mxGeometry y="52" width="160" height="26" as="geometry" />
        </mxCell>
        <mxCell id="310pnRa5Z1byuFcqEeXe-96" value="Coupon" style="swimlane;fontStyle=2;align=center;verticalAlign=top;childLayout=stackLayout;horizontal=1;startSize=26;horizontalStack=0;resizeParent=1;resizeLast=0;collapsible=1;marginBottom=0;rounded=0;shadow=0;strokeWidth=1;fillColor=#b0e3e6;strokeColor=#0e8088;" parent="WIyWlLk6GJQsqaUBKTNV-1" vertex="1">
          <mxGeometry x="260" y="-1169" width="160" height="104" as="geometry">
            <mxRectangle x="230" y="140" width="160" height="26" as="alternateBounds" />
          </mxGeometry>
        </mxCell>
        <mxCell id="310pnRa5Z1byuFcqEeXe-97" value="Id: int" style="text;align=left;verticalAlign=top;spacingLeft=4;spacingRight=4;overflow=hidden;rotatable=0;points=[[0,0.5],[1,0.5]];portConstraint=eastwest;" parent="310pnRa5Z1byuFcqEeXe-96" vertex="1">
          <mxGeometry y="26" width="160" height="26" as="geometry" />
        </mxCell>
        <mxCell id="310pnRa5Z1byuFcqEeXe-99" value="Discount: int" style="text;align=left;verticalAlign=top;spacingLeft=4;spacingRight=4;overflow=hidden;rotatable=0;points=[[0,0.5],[1,0.5]];portConstraint=eastwest;rounded=0;shadow=0;html=0;" parent="310pnRa5Z1byuFcqEeXe-96" vertex="1">
          <mxGeometry y="52" width="160" height="26" as="geometry" />
        </mxCell>
        <mxCell id="310pnRa5Z1byuFcqEeXe-98" value="Date of end: date" style="text;align=left;verticalAlign=top;spacingLeft=4;spacingRight=4;overflow=hidden;rotatable=0;points=[[0,0.5],[1,0.5]];portConstraint=eastwest;rounded=0;shadow=0;html=0;" parent="310pnRa5Z1byuFcqEeXe-96" vertex="1">
          <mxGeometry y="78" width="160" height="26" as="geometry" />
        </mxCell>
        <mxCell id="310pnRa5Z1byuFcqEeXe-101" value="" style="edgeStyle=entityRelationEdgeStyle;fontSize=12;html=1;endArrow=ERzeroToMany;rounded=0;entryX=1;entryY=0.5;entryDx=0;entryDy=0;exitX=-0.004;exitY=0.917;exitDx=0;exitDy=0;exitPerimeter=0;startArrow=ERmandOne;startFill=0;endFill=0;" parent="WIyWlLk6GJQsqaUBKTNV-1" source="xgKtOcf8zNCmexhq9f7v-17" target="310pnRa5Z1byuFcqEeXe-85" edge="1">
          <mxGeometry width="100" height="100" relative="1" as="geometry">
            <mxPoint x="420" y="-879" as="sourcePoint" />
            <mxPoint x="660" y="-899" as="targetPoint" />
          </mxGeometry>
        </mxCell>
        <mxCell id="310pnRa5Z1byuFcqEeXe-104" value="" style="fontSize=12;html=1;endArrow=ERoneToMany;entryX=0.5;entryY=0;entryDx=0;entryDy=0;exitX=1;exitY=0.5;exitDx=0;exitDy=0;strokeColor=default;rounded=0;jumpStyle=none;" parent="WIyWlLk6GJQsqaUBKTNV-1" source="xgKtOcf8zNCmexhq9f7v-24" target="xgKtOcf8zNCmexhq9f7v-8" edge="1">
          <mxGeometry width="100" height="100" relative="1" as="geometry">
            <mxPoint x="540" y="-699" as="sourcePoint" />
            <mxPoint x="640" y="-799" as="targetPoint" />
          </mxGeometry>
        </mxCell>
        <mxCell id="310pnRa5Z1byuFcqEeXe-117" value="Cart" style="swimlane;fontStyle=0;align=center;verticalAlign=top;childLayout=stackLayout;horizontal=1;startSize=26;horizontalStack=0;resizeParent=1;resizeLast=0;collapsible=1;marginBottom=0;rounded=0;shadow=0;strokeWidth=1;fillColor=#b0e3e6;strokeColor=#0e8088;" parent="WIyWlLk6GJQsqaUBKTNV-1" vertex="1">
          <mxGeometry x="1120" y="-519" width="160" height="70" as="geometry">
            <mxRectangle x="1140" y="500" width="160" height="26" as="alternateBounds" />
          </mxGeometry>
        </mxCell>
        <mxCell id="310pnRa5Z1byuFcqEeXe-118" value="Id : int" style="text;align=left;verticalAlign=top;spacingLeft=4;spacingRight=4;overflow=hidden;rotatable=0;points=[[0,0.5],[1,0.5]];portConstraint=eastwest;rounded=0;shadow=0;html=0;" parent="310pnRa5Z1byuFcqEeXe-117" vertex="1">
          <mxGeometry y="26" width="160" height="16" as="geometry" />
        </mxCell>
        <mxCell id="310pnRa5Z1byuFcqEeXe-119" value="UserId : int" style="text;align=left;verticalAlign=top;spacingLeft=4;spacingRight=4;overflow=hidden;rotatable=0;points=[[0,0.5],[1,0.5]];portConstraint=eastwest;rounded=0;shadow=0;html=0;" parent="310pnRa5Z1byuFcqEeXe-117" vertex="1">
          <mxGeometry y="42" width="160" height="16" as="geometry" />
        </mxCell>
        <mxCell id="310pnRa5Z1byuFcqEeXe-127" value="" style="fontSize=12;html=1;endArrow=ERmandOne;startArrow=ERmandOne;rounded=0;entryX=0.5;entryY=0;entryDx=0;entryDy=0;exitX=1;exitY=0.5;exitDx=0;exitDy=0;" parent="WIyWlLk6GJQsqaUBKTNV-1" source="xgKtOcf8zNCmexhq9f7v-17" target="310pnRa5Z1byuFcqEeXe-117" edge="1">
          <mxGeometry width="100" height="100" relative="1" as="geometry">
            <mxPoint x="816.76" y="-769" as="sourcePoint" />
            <mxPoint x="1136.76" y="-619" as="targetPoint" />
          </mxGeometry>
        </mxCell>
        <mxCell id="310pnRa5Z1byuFcqEeXe-142" value="Order-Drink" style="swimlane;fontStyle=0;align=center;verticalAlign=top;childLayout=stackLayout;horizontal=1;startSize=26;horizontalStack=0;resizeParent=1;resizeLast=0;collapsible=1;marginBottom=0;rounded=0;shadow=0;strokeWidth=1;" parent="WIyWlLk6GJQsqaUBKTNV-1" vertex="1">
          <mxGeometry x="500" y="-499" width="160" height="90" as="geometry">
            <mxRectangle x="539" y="240" width="160" height="26" as="alternateBounds" />
          </mxGeometry>
        </mxCell>
        <mxCell id="310pnRa5Z1byuFcqEeXe-143" value="Id : int" style="text;align=left;verticalAlign=top;spacingLeft=4;spacingRight=4;overflow=hidden;rotatable=0;points=[[0,0.5],[1,0.5]];portConstraint=eastwest;rounded=0;shadow=0;html=0;" parent="310pnRa5Z1byuFcqEeXe-142" vertex="1">
          <mxGeometry y="26" width="160" height="16" as="geometry" />
        </mxCell>
        <mxCell id="310pnRa5Z1byuFcqEeXe-144" value="OrderId : int" style="text;align=left;verticalAlign=top;spacingLeft=4;spacingRight=4;overflow=hidden;rotatable=0;points=[[0,0.5],[1,0.5]];portConstraint=eastwest;rounded=0;shadow=0;html=0;" parent="310pnRa5Z1byuFcqEeXe-142" vertex="1">
          <mxGeometry y="42" width="160" height="16" as="geometry" />
        </mxCell>
        <mxCell id="310pnRa5Z1byuFcqEeXe-145" value="DrinkId : int" style="text;align=left;verticalAlign=top;spacingLeft=4;spacingRight=4;overflow=hidden;rotatable=0;points=[[0,0.5],[1,0.5]];portConstraint=eastwest;rounded=0;shadow=0;html=0;" parent="310pnRa5Z1byuFcqEeXe-142" vertex="1">
          <mxGeometry y="58" width="160" height="16" as="geometry" />
        </mxCell>
        <mxCell id="310pnRa5Z1byuFcqEeXe-146" value="Order-dessert" style="swimlane;fontStyle=0;align=center;verticalAlign=top;childLayout=stackLayout;horizontal=1;startSize=26;horizontalStack=0;resizeParent=1;resizeLast=0;collapsible=1;marginBottom=0;rounded=0;shadow=0;strokeWidth=1;" parent="WIyWlLk6GJQsqaUBKTNV-1" vertex="1">
          <mxGeometry x="740" y="-499" width="160" height="90" as="geometry">
            <mxRectangle x="539" y="240" width="160" height="26" as="alternateBounds" />
          </mxGeometry>
        </mxCell>
        <mxCell id="310pnRa5Z1byuFcqEeXe-147" value="Id : int" style="text;align=left;verticalAlign=top;spacingLeft=4;spacingRight=4;overflow=hidden;rotatable=0;points=[[0,0.5],[1,0.5]];portConstraint=eastwest;rounded=0;shadow=0;html=0;" parent="310pnRa5Z1byuFcqEeXe-146" vertex="1">
          <mxGeometry y="26" width="160" height="16" as="geometry" />
        </mxCell>
        <mxCell id="310pnRa5Z1byuFcqEeXe-148" value="OrderId : int" style="text;align=left;verticalAlign=top;spacingLeft=4;spacingRight=4;overflow=hidden;rotatable=0;points=[[0,0.5],[1,0.5]];portConstraint=eastwest;rounded=0;shadow=0;html=0;" parent="310pnRa5Z1byuFcqEeXe-146" vertex="1">
          <mxGeometry y="42" width="160" height="16" as="geometry" />
        </mxCell>
        <mxCell id="310pnRa5Z1byuFcqEeXe-149" value="Dessert : int" style="text;align=left;verticalAlign=top;spacingLeft=4;spacingRight=4;overflow=hidden;rotatable=0;points=[[0,0.5],[1,0.5]];portConstraint=eastwest;rounded=0;shadow=0;html=0;" parent="310pnRa5Z1byuFcqEeXe-146" vertex="1">
          <mxGeometry y="58" width="160" height="16" as="geometry" />
        </mxCell>
        <mxCell id="310pnRa5Z1byuFcqEeXe-150" value="" style="edgeStyle=orthogonalEdgeStyle;fontSize=12;html=1;endArrow=ERoneToMany;startArrow=ERmandOne;rounded=0;entryX=0;entryY=0.5;entryDx=0;entryDy=0;exitX=0.5;exitY=0;exitDx=0;exitDy=0;" parent="WIyWlLk6GJQsqaUBKTNV-1" source="310pnRa5Z1byuFcqEeXe-142" target="310pnRa5Z1byuFcqEeXe-116" edge="1">
          <mxGeometry width="100" height="100" relative="1" as="geometry">
            <mxPoint x="510" y="-129" as="sourcePoint" />
            <mxPoint x="510" y="-89" as="targetPoint" />
          </mxGeometry>
        </mxCell>
        <mxCell id="310pnRa5Z1byuFcqEeXe-151" value="" style="fontSize=12;html=1;endArrow=ERzeroToMany;startArrow=ERmandOne;rounded=0;entryX=0.5;entryY=1;entryDx=0;entryDy=0;exitX=0.5;exitY=0;exitDx=0;exitDy=0;" parent="WIyWlLk6GJQsqaUBKTNV-1" source="310pnRa5Z1byuFcqEeXe-32" target="310pnRa5Z1byuFcqEeXe-142" edge="1">
          <mxGeometry width="100" height="100" relative="1" as="geometry">
            <mxPoint x="780" y="-308.05" as="sourcePoint" />
            <mxPoint x="610" y="-302.05" as="targetPoint" />
          </mxGeometry>
        </mxCell>
        <mxCell id="310pnRa5Z1byuFcqEeXe-154" value="" style="edgeStyle=orthogonalEdgeStyle;fontSize=12;html=1;endArrow=ERoneToMany;startArrow=ERmandOne;rounded=0;entryX=1.015;entryY=0.059;entryDx=0;entryDy=0;exitX=0.5;exitY=0;exitDx=0;exitDy=0;entryPerimeter=0;" parent="WIyWlLk6GJQsqaUBKTNV-1" source="310pnRa5Z1byuFcqEeXe-146" target="310pnRa5Z1byuFcqEeXe-116" edge="1">
          <mxGeometry width="100" height="100" relative="1" as="geometry">
            <mxPoint x="799.53" y="-536" as="sourcePoint" />
            <mxPoint x="819.53" y="-639" as="targetPoint" />
          </mxGeometry>
        </mxCell>
        <mxCell id="310pnRa5Z1byuFcqEeXe-155" value="" style="fontSize=12;html=1;endArrow=ERzeroToMany;startArrow=ERmandOne;rounded=0;entryX=0.5;entryY=1;entryDx=0;entryDy=0;exitX=0.5;exitY=0;exitDx=0;exitDy=0;" parent="WIyWlLk6GJQsqaUBKTNV-1" source="zkfFHV4jXpPFQw0GAbJ--0" edge="1">
          <mxGeometry width="100" height="100" relative="1" as="geometry">
            <mxPoint x="740" y="-320.14" as="sourcePoint" />
            <mxPoint x="820" y="-409.14" as="targetPoint" />
          </mxGeometry>
        </mxCell>
        <mxCell id="310pnRa5Z1byuFcqEeXe-156" value="Cart-dessert" style="swimlane;fontStyle=0;align=center;verticalAlign=top;childLayout=stackLayout;horizontal=1;startSize=26;horizontalStack=0;resizeParent=1;resizeLast=0;collapsible=1;marginBottom=0;rounded=0;shadow=0;strokeWidth=1;" parent="WIyWlLk6GJQsqaUBKTNV-1" vertex="1">
          <mxGeometry x="1030" y="-349" width="160" height="90" as="geometry">
            <mxRectangle x="539" y="240" width="160" height="26" as="alternateBounds" />
          </mxGeometry>
        </mxCell>
        <mxCell id="310pnRa5Z1byuFcqEeXe-157" value="Id : int" style="text;align=left;verticalAlign=top;spacingLeft=4;spacingRight=4;overflow=hidden;rotatable=0;points=[[0,0.5],[1,0.5]];portConstraint=eastwest;rounded=0;shadow=0;html=0;" parent="310pnRa5Z1byuFcqEeXe-156" vertex="1">
          <mxGeometry y="26" width="160" height="16" as="geometry" />
        </mxCell>
        <mxCell id="310pnRa5Z1byuFcqEeXe-158" value="CartId : int" style="text;align=left;verticalAlign=top;spacingLeft=4;spacingRight=4;overflow=hidden;rotatable=0;points=[[0,0.5],[1,0.5]];portConstraint=eastwest;rounded=0;shadow=0;html=0;" parent="310pnRa5Z1byuFcqEeXe-156" vertex="1">
          <mxGeometry y="42" width="160" height="16" as="geometry" />
        </mxCell>
        <mxCell id="310pnRa5Z1byuFcqEeXe-159" value="Dessert : int" style="text;align=left;verticalAlign=top;spacingLeft=4;spacingRight=4;overflow=hidden;rotatable=0;points=[[0,0.5],[1,0.5]];portConstraint=eastwest;rounded=0;shadow=0;html=0;" parent="310pnRa5Z1byuFcqEeXe-156" vertex="1">
          <mxGeometry y="58" width="160" height="16" as="geometry" />
        </mxCell>
        <mxCell id="310pnRa5Z1byuFcqEeXe-160" value="Cart-Drink" style="swimlane;fontStyle=0;align=center;verticalAlign=top;childLayout=stackLayout;horizontal=1;startSize=26;horizontalStack=0;resizeParent=1;resizeLast=0;collapsible=1;marginBottom=0;rounded=0;shadow=0;strokeWidth=1;" parent="WIyWlLk6GJQsqaUBKTNV-1" vertex="1">
          <mxGeometry x="1220" y="-228.14" width="160" height="90" as="geometry">
            <mxRectangle x="539" y="240" width="160" height="26" as="alternateBounds" />
          </mxGeometry>
        </mxCell>
        <mxCell id="310pnRa5Z1byuFcqEeXe-161" value="Id : int" style="text;align=left;verticalAlign=top;spacingLeft=4;spacingRight=4;overflow=hidden;rotatable=0;points=[[0,0.5],[1,0.5]];portConstraint=eastwest;rounded=0;shadow=0;html=0;" parent="310pnRa5Z1byuFcqEeXe-160" vertex="1">
          <mxGeometry y="26" width="160" height="16" as="geometry" />
        </mxCell>
        <mxCell id="310pnRa5Z1byuFcqEeXe-162" value="CartId : int" style="text;align=left;verticalAlign=top;spacingLeft=4;spacingRight=4;overflow=hidden;rotatable=0;points=[[0,0.5],[1,0.5]];portConstraint=eastwest;rounded=0;shadow=0;html=0;" parent="310pnRa5Z1byuFcqEeXe-160" vertex="1">
          <mxGeometry y="42" width="160" height="16" as="geometry" />
        </mxCell>
        <mxCell id="310pnRa5Z1byuFcqEeXe-163" value="DrinkId : int" style="text;align=left;verticalAlign=top;spacingLeft=4;spacingRight=4;overflow=hidden;rotatable=0;points=[[0,0.5],[1,0.5]];portConstraint=eastwest;rounded=0;shadow=0;html=0;" parent="310pnRa5Z1byuFcqEeXe-160" vertex="1">
          <mxGeometry y="58" width="160" height="16" as="geometry" />
        </mxCell>
        <mxCell id="310pnRa5Z1byuFcqEeXe-164" style="rounded=0;orthogonalLoop=1;jettySize=auto;html=1;entryX=0.438;entryY=0.027;entryDx=0;entryDy=0;entryPerimeter=0;endArrow=ERzeroToMany;endFill=0;startArrow=ERmandOne;startFill=0;" parent="WIyWlLk6GJQsqaUBKTNV-1" source="310pnRa5Z1byuFcqEeXe-117" target="310pnRa5Z1byuFcqEeXe-156" edge="1">
          <mxGeometry relative="1" as="geometry" />
        </mxCell>
        <mxCell id="310pnRa5Z1byuFcqEeXe-165" style="rounded=0;orthogonalLoop=1;jettySize=auto;html=1;entryX=0.677;entryY=0.032;entryDx=0;entryDy=0;entryPerimeter=0;startArrow=ERmandOne;startFill=0;endArrow=ERzeroToMany;endFill=0;" parent="WIyWlLk6GJQsqaUBKTNV-1" source="310pnRa5Z1byuFcqEeXe-117" target="310pnRa5Z1byuFcqEeXe-160" edge="1">
          <mxGeometry relative="1" as="geometry" />
        </mxCell>
        <mxCell id="310pnRa5Z1byuFcqEeXe-167" value="" style="fontSize=12;html=1;endArrow=ERmandOne;startArrow=ERzeroToMany;rounded=0;edgeStyle=elbowEdgeStyle;entryX=0.99;entryY=-0.203;entryDx=0;entryDy=0;startFill=0;endFill=0;entryPerimeter=0;exitX=0;exitY=0.5;exitDx=0;exitDy=0;" parent="WIyWlLk6GJQsqaUBKTNV-1" edge="1" target="zkfFHV4jXpPFQw0GAbJ--3" source="310pnRa5Z1byuFcqEeXe-158">
          <mxGeometry width="100" height="100" relative="1" as="geometry">
            <mxPoint x="950" y="-305" as="sourcePoint" />
            <mxPoint x="1030" y="-304.56" as="targetPoint" />
          </mxGeometry>
        </mxCell>
        <mxCell id="310pnRa5Z1byuFcqEeXe-168" value="" style="fontSize=12;html=1;endArrow=ERzeroToMany;startArrow=ERmandOne;rounded=0;exitX=1.022;exitY=0.847;exitDx=0;exitDy=0;edgeStyle=elbowEdgeStyle;entryX=0;entryY=0.5;entryDx=0;entryDy=0;exitPerimeter=0;endFill=0;startFill=0;" parent="WIyWlLk6GJQsqaUBKTNV-1" edge="1">
          <mxGeometry width="100" height="100" relative="1" as="geometry">
            <mxPoint x="583.52" y="-168.11799999999994" as="sourcePoint" />
            <mxPoint x="1220" y="-169" as="targetPoint" />
          </mxGeometry>
        </mxCell>
        <mxCell id="310pnRa5Z1byuFcqEeXe-174" value="Recipe-Ingredient" style="swimlane;fontStyle=0;align=center;verticalAlign=top;childLayout=stackLayout;horizontal=1;startSize=26;horizontalStack=0;resizeParent=1;resizeLast=0;collapsible=1;marginBottom=0;rounded=0;shadow=0;strokeWidth=1;" parent="WIyWlLk6GJQsqaUBKTNV-1" vertex="1">
          <mxGeometry x="220" y="-439" width="160" height="90" as="geometry">
            <mxRectangle x="539" y="240" width="160" height="26" as="alternateBounds" />
          </mxGeometry>
        </mxCell>
        <mxCell id="310pnRa5Z1byuFcqEeXe-175" value="Id : int" style="text;align=left;verticalAlign=top;spacingLeft=4;spacingRight=4;overflow=hidden;rotatable=0;points=[[0,0.5],[1,0.5]];portConstraint=eastwest;rounded=0;shadow=0;html=0;" parent="310pnRa5Z1byuFcqEeXe-174" vertex="1">
          <mxGeometry y="26" width="160" height="16" as="geometry" />
        </mxCell>
        <mxCell id="310pnRa5Z1byuFcqEeXe-176" value="RecipeId : int" style="text;align=left;verticalAlign=top;spacingLeft=4;spacingRight=4;overflow=hidden;rotatable=0;points=[[0,0.5],[1,0.5]];portConstraint=eastwest;rounded=0;shadow=0;html=0;" parent="310pnRa5Z1byuFcqEeXe-174" vertex="1">
          <mxGeometry y="42" width="160" height="16" as="geometry" />
        </mxCell>
        <mxCell id="310pnRa5Z1byuFcqEeXe-177" value="IngredientId : int" style="text;align=left;verticalAlign=top;spacingLeft=4;spacingRight=4;overflow=hidden;rotatable=0;points=[[0,0.5],[1,0.5]];portConstraint=eastwest;rounded=0;shadow=0;html=0;" parent="310pnRa5Z1byuFcqEeXe-174" vertex="1">
          <mxGeometry y="58" width="160" height="16" as="geometry" />
        </mxCell>
        <mxCell id="dkHUZiq-XQNoRCW6jYtN-0" style="rounded=0;orthogonalLoop=1;jettySize=auto;html=1;entryX=0.5;entryY=0;entryDx=0;entryDy=0;endArrow=ERoneToMany;endFill=0;startArrow=ERmandOne;startFill=0;" parent="WIyWlLk6GJQsqaUBKTNV-1" target="310pnRa5Z1byuFcqEeXe-174" edge="1">
          <mxGeometry relative="1" as="geometry">
            <mxPoint x="347.5" y="-539" as="sourcePoint" />
            <mxPoint x="272.5" y="-437" as="targetPoint" />
          </mxGeometry>
        </mxCell>
        <mxCell id="dkHUZiq-XQNoRCW6jYtN-1" value="" style="fontSize=12;html=1;endArrow=ERmandOne;startArrow=ERoneToMany;rounded=0;entryX=0.5;entryY=0;entryDx=0;entryDy=0;startFill=0;endFill=0;" parent="WIyWlLk6GJQsqaUBKTNV-1" target="xgKtOcf8zNCmexhq9f7v-1" edge="1">
          <mxGeometry width="100" height="100" relative="1" as="geometry">
            <mxPoint x="290" y="-349" as="sourcePoint" />
            <mxPoint x="320" y="-319.7" as="targetPoint" />
          </mxGeometry>
        </mxCell>
        <mxCell id="dkHUZiq-XQNoRCW6jYtN-2" value="User-Coupon" style="swimlane;fontStyle=0;align=center;verticalAlign=top;childLayout=stackLayout;horizontal=1;startSize=26;horizontalStack=0;resizeParent=1;resizeLast=0;collapsible=1;marginBottom=0;rounded=0;shadow=0;strokeWidth=1;" parent="WIyWlLk6GJQsqaUBKTNV-1" vertex="1">
          <mxGeometry x="460" y="-1059" width="160" height="90" as="geometry">
            <mxRectangle x="539" y="240" width="160" height="26" as="alternateBounds" />
          </mxGeometry>
        </mxCell>
        <mxCell id="dkHUZiq-XQNoRCW6jYtN-3" value="Id : int" style="text;align=left;verticalAlign=top;spacingLeft=4;spacingRight=4;overflow=hidden;rotatable=0;points=[[0,0.5],[1,0.5]];portConstraint=eastwest;rounded=0;shadow=0;html=0;" parent="dkHUZiq-XQNoRCW6jYtN-2" vertex="1">
          <mxGeometry y="26" width="160" height="16" as="geometry" />
        </mxCell>
        <mxCell id="dkHUZiq-XQNoRCW6jYtN-4" value="CouponId : int" style="text;align=left;verticalAlign=top;spacingLeft=4;spacingRight=4;overflow=hidden;rotatable=0;points=[[0,0.5],[1,0.5]];portConstraint=eastwest;rounded=0;shadow=0;html=0;" parent="dkHUZiq-XQNoRCW6jYtN-2" vertex="1">
          <mxGeometry y="42" width="160" height="16" as="geometry" />
        </mxCell>
        <mxCell id="dkHUZiq-XQNoRCW6jYtN-5" value="UserId : int" style="text;align=left;verticalAlign=top;spacingLeft=4;spacingRight=4;overflow=hidden;rotatable=0;points=[[0,0.5],[1,0.5]];portConstraint=eastwest;rounded=0;shadow=0;html=0;" parent="dkHUZiq-XQNoRCW6jYtN-2" vertex="1">
          <mxGeometry y="58" width="160" height="16" as="geometry" />
        </mxCell>
        <mxCell id="dkHUZiq-XQNoRCW6jYtN-6" style="rounded=0;orthogonalLoop=1;jettySize=auto;html=1;entryX=0.5;entryY=0;entryDx=0;entryDy=0;endArrow=ERzeroToMany;endFill=0;startArrow=ERmandOne;startFill=0;exitX=1;exitY=0.5;exitDx=0;exitDy=0;" parent="WIyWlLk6GJQsqaUBKTNV-1" source="310pnRa5Z1byuFcqEeXe-97" target="dkHUZiq-XQNoRCW6jYtN-2" edge="1">
          <mxGeometry relative="1" as="geometry">
            <mxPoint x="627.5" y="-1219" as="sourcePoint" />
            <mxPoint x="552.5" y="-1117" as="targetPoint" />
          </mxGeometry>
        </mxCell>
        <mxCell id="dkHUZiq-XQNoRCW6jYtN-7" style="rounded=0;orthogonalLoop=1;jettySize=auto;html=1;entryX=0.5;entryY=1;entryDx=0;entryDy=0;endArrow=ERzeroToMany;endFill=0;startArrow=ERmandOne;startFill=0;exitX=0.5;exitY=0;exitDx=0;exitDy=0;" parent="WIyWlLk6GJQsqaUBKTNV-1" source="xgKtOcf8zNCmexhq9f7v-15" target="dkHUZiq-XQNoRCW6jYtN-2" edge="1">
          <mxGeometry relative="1" as="geometry">
            <mxPoint x="800" y="-1029" as="sourcePoint" />
            <mxPoint x="725" y="-927" as="targetPoint" />
          </mxGeometry>
        </mxCell>
        <mxCell id="NCiXXJRuxqjIM4p_Ot1e-0" value="" style="fontSize=12;html=1;endArrow=ERzeroToMany;startArrow=ERmandOne;rounded=0;exitX=0.5;exitY=0;exitDx=0;exitDy=0;entryX=0.5;entryY=1;entryDx=0;entryDy=0;" parent="WIyWlLk6GJQsqaUBKTNV-1" source="310pnRa5Z1byuFcqEeXe-90" target="310pnRa5Z1byuFcqEeXe-32" edge="1">
          <mxGeometry width="100" height="100" relative="1" as="geometry">
            <mxPoint x="530" y="-138" as="sourcePoint" />
            <mxPoint x="530" y="-140" as="targetPoint" />
          </mxGeometry>
        </mxCell>
      </root>
    </mxGraphModel>
  </diagram>
</mxfile>
